<?xml version="1.0" encoding="UTF-8"?>
<svg width="13px" height="12px" viewBox="0 0 13 12" version="1.1" xmlns="http://www.w3.org/2000/svg" xmlns:xlink="http://www.w3.org/1999/xlink">
    <!-- Generator: Sketch 43.2 (39069) - http://www.bohemiancoding.com/sketch -->
    <title>Shape</title>
    <desc>Created with Sketch.</desc>
    <defs></defs>
    <g id="Page-1" stroke="none" stroke-width="1" fill="none" fill-rule="evenodd">
        <g id="SP-Funnel---Pricing---Yearly" transform="translate(-1130.000000, -2351.000000)" fill-rule="nonzero" fill="#F26374">
            <path d="M1143,2354.33818 C1143,2352.50545 1141.4811,2351.02182 1139.60481,2351.02182 C1138.24227,2351.02182 1137.08076,2351.78545 1136.54467,2352.92 L1136.52234,2352.89818 L1136.52234,2352.89818 L1136.5,2352.92 C1136.45533,2352.87636 1136.43299,2352.85455 1136.43299,2352.81091 C1135.87457,2351.74182 1134.71306,2351 1133.39519,2351 C1131.5189,2351 1130,2352.48364 1130,2354.31636 C1130,2355.16727 1130.33505,2355.95273 1130.87113,2356.54182 L1130.87113,2356.54182 L1136.5,2363 L1136.5,2363 L1142.12887,2356.54182 L1142.12887,2356.54182 C1142.66495,2355.95273 1143,2355.18909 1143,2354.33818 Z" id="Shape"></path>
        </g>
    </g>
</svg>