<?xml version="1.0" encoding="UTF-8"?>
<svg width="181px" height="19px" viewBox="0 0 181 19" version="1.1" xmlns="http://www.w3.org/2000/svg" xmlns:xlink="http://www.w3.org/1999/xlink">
    <!-- Generator: Sketch 43.2 (39069) - http://www.bohemiancoding.com/sketch -->
    <title>Group 10</title>
    <desc>Created with Sketch.</desc>
    <defs></defs>
    <g id="Page-1" stroke="none" stroke-width="1" fill="none" fill-rule="evenodd">
        <g id="SP-Funnel---Pricing---Yearly" transform="translate(-1021.000000, -2396.000000)" fill="#292533">
            <g id="Group-10" transform="translate(1021.000000, 2396.000000)">
                <g id="Group-4" transform="translate(0.000000, 2.688889)">
                    <path d="M5.34709249,16.1111111 L1.92726146,16.1111111 L1.92726146,8.18788886 L0.218390805,8.18788886 L0.218390805,5.45781228 L1.92726146,5.45781228 L1.92726146,3.8187663 C1.92726146,1.59170383 2.89166844,0.266666667 5.63338449,0.266666667 L7.91536156,0.266666667 L7.91536156,2.99774327 L6.48912589,2.99774327 C5.42180007,2.99774327 5.35127194,3.37925398 5.35127194,4.09127395 L5.34657006,5.45781228 L7.93103448,5.45781228 L7.62854714,8.18788886 L5.34657006,8.18788886 L5.34657006,16.1111111 L5.34709249,16.1111111 Z" id="Shape"></path>
                </g>
                <g id="Group-5" transform="translate(39.770115, 3.688889)">
                    <path d="M13.4033918,2.60483734 C14.0273765,2.21795304 14.5061681,1.60449067 14.7308718,0.873709214 C14.1466423,1.23283098 13.5010515,1.49254498 12.8122484,1.63314876 C12.2625887,1.02416422 11.4769902,0.644444444 10.60756,0.644444444 C8.93956763,0.644444444 7.58788883,2.04600446 7.58788883,3.77444589 C7.58788883,4.01983084 7.61295193,4.25894683 7.66480662,4.48731603 C5.15503984,4.35656347 2.92960959,3.11172741 1.43878739,1.2167108 C1.17864971,1.68061374 1.02999962,2.21795304 1.02999962,2.79111496 C1.02999962,3.87654036 1.56323863,4.83479545 2.37390021,5.39721059 C1.87868797,5.38109041 1.41286004,5.23869549 1.00493652,5.00584846 L1.00493652,5.04435778 C1.00493652,6.56144574 2.04548721,7.8268798 3.42914306,8.11346077 C3.1750551,8.18689714 2.90886772,8.22361532 2.6323094,8.22361532 C2.43785433,8.22361532 2.24772048,8.20480845 2.06450059,8.16809026 C2.44822526,9.41113519 3.56396524,10.3174475 4.88625972,10.3416277 C3.85175875,11.1816682 2.5493419,11.6813937 1.13457323,11.6813937 C0.89085621,11.6813937 0.649731922,11.6679603 0.413793103,11.6384066 C1.75077974,12.525912 3.33839736,13.0444444 5.04441651,13.0444444 C10.6015103,13.0444444 13.6384664,8.27466256 13.6384664,4.13804548 C13.6384664,4.00191953 13.6367379,3.86668914 13.6306882,3.73324988 C14.2209673,3.29173608 14.7343287,2.74006773 15.137931,2.11227631 C14.5960496,2.36124352 14.0135486,2.52960984 13.4033918,2.60483734 Z" id="Shape"></path>
                </g>
                <g id="Group-6" transform="translate(82.540230, 2.688889)">
                    <path d="M0.767500892,4.68458901 L3.50069744,4.68458901 L3.50069744,14.0435623 L0.767500892,14.0435623 L0.767500892,4.68458901 Z M2.06442945,3.51394545 L2.0446416,3.51394545 C1.05524919,3.51394545 0.413793103,2.79850315 0.413793103,1.89251149 C0.413793103,0.967994195 1.07421254,0.266666667 2.08339281,0.266666667 C3.09174858,0.266666667 3.71176782,0.966229849 3.73155567,1.88986497 C3.73155567,2.79585663 3.09174858,3.51394545 2.06442945,3.51394545 L2.06442945,3.51394545 Z M14.4367816,14.0444444 L11.3375099,14.0444444 L11.3375099,9.20043255 C11.3375099,7.93274996 10.8527076,7.06822043 9.78663726,7.06822043 C8.97121301,7.06822043 8.51774148,7.65133678 8.3066711,8.21504532 C8.22751971,8.41618076 8.23988711,8.69759394 8.23988711,8.9798893 L8.23988711,14.0444444 L5.16947265,14.0444444 C5.16947265,14.0444444 5.20904835,5.46442993 5.16947265,4.68458901 L8.23988711,4.68458901 L8.23988711,6.15340704 C8.42127572,5.5111851 9.4024232,4.59460736 10.9681367,4.59460736 C12.9106438,4.59460736 14.4367816,5.94168552 14.4367816,8.8396238 L14.4367816,14.0444444 L14.4367816,14.0444444 Z" id="Shape"></path>
                </g>
                <g id="Group-8" transform="translate(168.379310, 0.688889)">
                    <path d="M9.26027071,7.74754639 C9.78516025,6.36975424 10.1948098,5.23231813 10.4886837,4.33523807 C10.7825575,3.43815801 10.9295242,2.88740915 10.9295242,2.68304901 C10.9295242,2.46350849 10.8805353,2.29318921 10.7825575,2.17203366 C10.6844607,2.05105062 10.5492799,1.99038659 10.3770152,1.99038659 C10.1576068,1.99038659 9.93421031,2.16639852 9.70700421,2.51836487 C9.47956001,2.87038873 9.22896067,3.43643296 8.95467047,4.21603757 L7.77917505,7.49770261 L9.26027071,7.74754639 L9.26027071,7.74754639 Z M7.69685228,10.8021382 C7.35988248,10.7870153 7.04041297,10.7529745 6.73886041,10.6999581 C6.43712929,10.6471143 6.14914839,10.5712699 5.87485818,10.4728849 C6.00009833,10.7152535 6.11176682,10.9573346 6.20986366,11.1995882 C6.30784146,11.4420143 6.38802134,11.6804728 6.45087951,11.9149637 C6.6389183,11.6878905 6.83683821,11.4817478 7.04452018,11.2961331 C7.25202357,11.1106335 7.4694676,10.9460068 7.69685228,10.8021382 L7.69685228,10.8021382 Z M6.36855674,7.36148168 L5.09901216,3.81858757 C4.76989963,2.91771242 4.51519308,2.32930012 4.33501156,2.05283316 C4.15453242,1.77648121 3.95881493,1.63836274 3.74720433,1.63836274 C3.58267783,1.63836274 3.44928279,1.69908427 3.34755493,1.82000981 C3.24564851,1.94116535 3.19475482,2.10389445 3.19475482,2.30831209 C3.19475482,2.65654085 3.33172134,3.26220358 3.60619012,4.12518529 C3.88042079,4.98816699 4.2918561,6.11991046 4.8404365,7.52041568 C4.88746108,7.43715359 4.95389074,7.37850211 5.0402612,7.34440375 C5.12645308,7.3103629 5.24401453,7.29334247 5.39288601,7.29334247 C5.43991059,7.29334247 5.53395975,7.29725257 5.67503349,7.30467025 C5.8160477,7.31226044 6.04712291,7.33135092 6.36855674,7.36148168 L6.36855674,7.36148168 Z M5.21657361,12.8461421 C5.34979007,12.8461421 5.47110158,12.7876057 5.58098433,12.6701302 C5.6906885,12.5527697 5.74557035,12.4259791 5.74557035,12.2897006 C5.74557035,12.1460045 5.63777097,11.8110586 5.42229126,11.2847479 C5.20663297,10.7586096 4.93835477,10.2419591 4.61709951,9.73473887 C4.38197662,9.35620685 4.15078236,9.07048217 3.92357626,8.87739231 C3.69613207,8.68435995 3.4807714,8.58781503 3.27701807,8.58781503 C3.11243204,8.58781503 2.93022668,8.68832755 2.73040198,8.8887776 C2.53057728,9.08940014 2.43063517,9.27673985 2.43063517,9.45085423 C2.43063517,9.6325588 2.52861297,9.90511566 2.72450903,10.2684673 C2.92028604,10.6318189 3.18296891,11.0179411 3.51214096,11.4267189 C3.85696803,11.8735052 4.18215192,12.2215614 4.48781168,12.4714052 C4.79341192,12.7211915 5.03615399,12.8461421 5.21657361,12.8461421 L5.21657361,12.8461421 Z M1.69008734,12.5735853 C1.79979152,12.702446 1.95265116,12.8915683 2.14854723,13.1413546 C2.66575807,13.8302794 3.14362303,14.174713 3.58267783,14.174713 C3.73137074,14.174713 3.86476578,14.1292869 3.98232722,14.0384346 C4.09982915,13.9475823 4.15863963,13.8529925 4.15863963,13.75455 C4.15863963,13.6410421 4.08024549,13.4519199 3.92357626,13.1867807 C3.76660941,12.921814 3.55130827,12.622979 3.27701807,12.2897006 C2.96356056,11.9036359 2.70284201,11.6216488 2.49533861,11.4437394 C2.28765664,11.2660024 2.12098725,11.1768751 1.99574711,11.1768751 C1.72127833,11.1768751 1.4685361,11.3188462 1.23752042,11.6027309 C1.00638568,11.8866155 0.890788554,12.2215614 0.890788554,12.6076261 C0.890788554,12.9181914 0.971087487,13.2645227 1.13174488,13.6466773 C1.29222369,14.0289469 1.52550132,14.4131715 1.83116108,14.7992363 C2.2935496,15.3973088 2.86736851,15.8570329 3.55327259,16.1788109 C4.23893856,16.500819 4.99716525,16.6613631 5.8278336,16.6613631 C7.35601337,16.6613631 8.63532001,16.1106717 9.66581306,15.0093465 C10.6961871,13.9078488 11.2116122,12.5282166 11.2116122,10.8702774 C11.2116122,10.3632297 11.1722663,9.96014454 11.0940507,9.66096452 C11.0157161,9.3618995 10.8864283,9.14425652 10.7061277,9.00797809 C10.3846939,8.75077412 9.75992174,8.51973331 8.83121607,8.31531567 C7.90262945,8.11095553 6.93279216,8.00871796 5.92188276,8.00871796 C5.63979481,8.00871796 5.43991059,8.0541441 5.32240867,8.14499639 C5.20484722,8.23584867 5.14603674,8.39104508 5.14603674,8.6105281 C5.14603674,9.12551105 5.44383923,9.49817792 6.03944421,9.72904623 C6.63487062,9.96014454 7.59875543,10.0754349 8.93115818,10.0754349 L9.41313035,10.0754349 C9.52283453,10.0754349 9.61099073,10.1151684 9.67759896,10.1946354 C9.74402862,10.2741024 9.78926746,10.3933604 9.81277975,10.5523519 C9.67938471,10.67345 9.40527308,10.8117985 8.98990914,10.9668224 C8.57442616,11.1219613 8.25704001,11.2752601 8.03781023,11.4267189 C7.56756445,11.7599398 7.18946302,12.1553773 6.90344644,12.6133188 C6.61719176,13.0714903 6.4743918,13.5047637 6.4743918,13.9135415 C6.4743918,14.1633853 6.53492851,14.4642903 6.65659716,14.8162567 C6.77802772,15.168338 6.838743,15.3859235 6.838743,15.4692431 L6.838743,15.5487101 L6.81523071,15.6508902 C6.47028459,15.6281771 6.19813728,15.4334197 5.99831258,15.0661005 C5.79848789,14.6989537 5.69854578,14.2088114 5.69854578,13.5955585 L5.69854578,13.4933784 C5.6356876,13.5463947 5.57509138,13.5842307 5.51634041,13.6069438 C5.45758945,13.6296568 5.39288601,13.6410421 5.32240867,13.6410421 C5.25181228,13.6410421 5.18520404,13.6353495 5.12252445,13.6239642 C5.05966628,13.6126364 4.98918893,13.5955585 4.91097337,13.5728454 C4.93448566,13.65628 4.95210499,13.7375295 4.96383138,13.8169965 C4.97561728,13.896521 4.98145071,13.9589676 4.98145071,14.0043938 C4.98145071,14.2844833 4.86787742,14.5250119 4.6406118,14.7254619 C4.41316761,14.9260844 4.14280604,15.026367 3.82946758,15.026367 C3.33582855,15.026367 2.83427273,14.7936011 2.32485963,14.3280119 C1.81532749,13.8624227 1.56079951,13.4064937 1.56079951,12.9597075 C1.56079951,12.8764454 1.5706211,12.8026135 1.59020476,12.7382119 C1.60960984,12.6740403 1.64306277,12.6190114 1.69008734,12.5735853 L1.69008734,12.5735853 Z M10.1066536,7.94057875 C10.8119628,8.06943949 11.3095899,8.35694672 11.5995352,8.80361795 C11.8893018,9.25040419 12.0344828,9.9544519 12.0344828,10.9157036 C12.0344828,12.8234291 11.4408421,14.3847658 10.2535608,15.5998289 C9.06633896,16.8147194 7.54798079,17.4222222 5.69854578,17.4222222 C4.96972433,17.4222222 4.26251038,17.295374 3.57678488,17.0417927 C2.8908808,16.7882113 2.30134734,16.4342899 1.80764879,15.980086 C1.24341337,15.4805709 0.820192161,14.9525351 0.538104213,14.3961511 C0.25595674,13.8397096 0.114942529,13.2702153 0.114942529,12.6871506 C0.114942529,12.0361193 0.259944901,11.5328666 0.549830595,11.1768751 C0.839656765,10.8210562 1.29805712,10.5789751 1.92521024,10.4501719 C1.80764879,10.1851477 1.72127833,9.96186959 1.66657505,9.78016502 C1.61175273,9.59846045 1.5843118,9.45844442 1.5843118,9.36005945 C1.5843118,9.01936338 1.77038628,8.67124962 2.14265427,8.31531567 C2.51474369,7.95949672 2.86558276,7.78158725 3.19475482,7.78158725 C3.33582855,7.78158725 3.48452146,7.80619787 3.64142879,7.85541911 C3.79815754,7.90481285 3.97822001,7.98600489 4.18215192,8.09957025 C3.57857062,6.44922124 3.13987297,5.1755642 2.86558276,4.27848414 C2.59111399,3.38140408 2.45420699,2.76251601 2.45420699,2.42187745 C2.45420699,1.95255064 2.57938761,1.57982627 2.83034409,1.30335931 C3.081122,1.02700736 3.42202044,0.888888889 3.85297987,0.888888889 C4.58948001,0.888888889 5.52223337,2.47863137 6.65070421,5.65817384 C6.84648122,6.20323005 6.99553128,6.62333562 7.09737818,6.91860554 C7.18357007,6.68411465 7.30488158,6.35083626 7.46178891,5.91934541 C8.59025975,2.7701062 9.56188279,1.1954866 10.3770152,1.1954866 C10.7767241,1.1954866 11.095896,1.32607238 11.3350666,1.58724395 C11.5740586,1.84841552 11.6935843,2.19871433 11.6935843,2.63762287 C11.6935843,2.97084375 11.5623322,3.58012908 11.2997684,4.46582385 C11.0370855,5.35157613 10.6395195,6.50977026 10.1066536,7.94057875 L10.1066536,7.94057875 Z" id="Shape"></path>
                </g>
                <g id="Group-7" transform="translate(123.609195, 0.000000)">
                    <path d="M4.1661632,13.3007264 L4.17781248,10.5098756 L4.70868662,10.5044065 L5.23900604,10.4978437 L5.23290404,10.0679772 L5.22624731,9.63756378 L3.69409016,9.63154784 L2.16304247,9.62553189 L2.16304247,10.0619612 L2.16304247,10.4978437 L2.68115789,10.5044065 L3.1992733,10.5098756 L3.2053753,13.2777564 C3.20814894,14.7997901 3.21591512,16.0587629 3.22201713,16.0746231 C3.23033804,16.0970462 3.33795516,16.1025152 3.69353544,16.0975931 L4.15451393,16.0915772 L4.1661632,13.3007264 Z M13.0035258,13.1043878 C12.9818914,13.0486036 13.0118467,12.4038039 13.0406925,12.3102833 C13.1078146,12.0904279 13.2503795,11.9832348 13.4750441,11.9832348 C13.6619873,11.9832348 13.7806989,12.0543323 13.8605797,12.2140282 C13.9110599,12.3152055 13.9160524,12.3584109 13.9238186,12.7324932 L13.9315848,13.1399366 L13.4739347,13.1399366 C13.0806329,13.1399366 13.0151751,13.1350145 13.0035258,13.1043878 L13.0035258,13.1043878 Z M13.857806,16.1112657 C14.3060258,15.9871185 14.6161184,15.6852275 14.7331659,15.2591894 C14.7525814,15.1864511 14.7753252,14.9791746 14.7830914,14.7992432 L14.7964048,14.4721946 L14.3648269,14.4721946 L13.9326942,14.4721946 L13.9221544,14.7653351 C13.9099504,15.0983996 13.8750026,15.2127025 13.7518531,15.3193488 C13.6209374,15.4325579 13.3801857,15.4407615 13.2237526,15.3368497 C13.0373642,15.2127025 12.9913218,15.0032383 13.0007522,14.3228898 L13.0074089,13.8405206 L13.9010748,13.8350515 L14.7947407,13.8284887 L14.7830914,13.1109507 C14.7686685,12.3102833 14.7520267,12.1888707 14.6155637,11.9044806 C14.3553965,11.3657802 13.6348056,11.093969 13.0362547,11.3089022 C12.5847066,11.4713327 12.3178827,11.7639263 12.2108203,12.2167628 C12.1730989,12.3764587 12.168661,12.5197475 12.168661,13.6912158 C12.168661,15.1279324 12.1736536,15.1864511 12.3223205,15.4806855 C12.588035,16.0040725 13.2531532,16.2775245 13.857806,16.1112657 L13.857806,16.1112657 Z M10.3191998,15.2930974 C10.3741178,15.2564548 10.4101751,15.2055928 10.4384662,15.1262917 C10.4745235,15.0218331 10.4778518,14.8889354 10.4728593,13.6567608 C10.4678667,12.3726304 10.4650931,12.2971576 10.4229338,12.2129344 C10.314762,11.9980012 10.0423908,11.9772188 9.79276347,12.1653538 L9.71066381,12.226607 L9.71066381,13.6912158 L9.71066381,15.1558245 L9.79220875,15.2170778 C9.97693298,15.3559914 10.1794085,15.3849773 10.3191998,15.2930974 L10.3191998,15.2930974 Z M10.860059,16.1200162 C10.9959673,16.081186 11.1601666,15.9220369 11.2339453,15.7596065 C11.3759555,15.4484181 11.3765103,15.4407615 11.3765103,13.6912158 C11.3765103,12.255046 11.3720725,12.0778492 11.3360152,11.9225284 C11.2189677,11.4253928 10.9637931,11.2082719 10.534434,11.2399923 C10.2942371,11.2585871 10.105075,11.3526545 9.8781915,11.5686816 C9.77945002,11.6622022 9.69124835,11.7393156 9.68126326,11.7393156 C9.67238762,11.7393156 9.66406671,11.2635092 9.66406671,10.6826972 L9.66406671,9.6260788 L9.24469278,9.6260788 L8.82531884,9.6260788 L8.82531884,12.864297 L8.82531884,16.1030621 L9.24469278,16.1030621 L9.66406671,16.1030621 L9.66406671,15.8848475 C9.66406671,15.7399179 9.67294235,15.6666328 9.6901389,15.6666328 C9.70400709,15.6666328 9.79831075,15.7431994 9.89982587,15.8372668 C10.2260056,16.1397047 10.5083619,16.2228341 10.860059,16.1200162 L10.860059,16.1200162 Z M6.39616745,16.0986869 C6.56369513,16.0374337 6.76062337,15.9028953 6.92648687,15.7366365 C7.00248453,15.66007 7.07848218,15.5977229 7.09512401,15.5977229 C7.1173131,15.5977229 7.12507929,15.66007 7.12507929,15.8503925 L7.12507929,16.1030621 L7.54445322,16.1030621 L7.96382715,16.1030621 L7.96382715,13.7027008 L7.96382715,11.3028863 L7.54445322,11.3028863 L7.12507929,11.3028863 L7.12507929,13.1541561 L7.12507929,15.0059728 L6.94423815,15.1826228 C6.80111847,15.3231771 6.74120791,15.3658356 6.65245152,15.3898994 C6.50267512,15.4309172 6.407262,15.4024782 6.34568725,15.2980195 C6.29909015,15.2203592 6.2979807,15.1842635 6.29132397,13.2608024 L6.28522197,11.3028863 L5.86584803,11.3028863 L5.44758355,11.3028863 L5.44758355,13.3816681 C5.44758355,15.6463974 5.44980246,15.6956187 5.57849923,15.9138334 C5.71939999,16.1522835 6.04890808,16.2272093 6.39616745,16.0986869 L6.39616745,16.0986869 Z M6.75230246,18.1014491 C6.20756013,18.0921518 5.56296686,18.0773854 5.31944152,18.0686349 C3.6846598,18.0106631 2.56244622,17.9488629 2.33833634,17.9040168 C2.01881334,17.840576 1.66156888,17.6272834 1.45410082,17.3762545 C1.12237382,16.9742801 0.944861046,16.4864418 0.858878295,15.7355427 C0.659731149,13.9898253 0.664168969,11.953702 0.871082298,10.2692378 C0.962057596,9.53091751 1.18783166,8.99768617 1.56671049,8.62579149 C1.78305418,8.41304586 1.99107697,8.29491461 2.26788595,8.2249109 C2.86810103,8.07341851 7.56442341,7.95309965 10.4212696,8.0154467 C12.0715837,8.05154236 13.8544777,8.1270151 14.3282149,8.18006478 C14.9411887,8.24897468 15.3716572,8.56180373 15.6695458,9.1551945 C15.8947651,9.60310883 15.966325,9.95203354 16.057855,11.0272467 C16.1294148,11.8782292 16.1471661,12.408726 16.1338527,13.3915124 C16.118875,14.5673559 16.0428774,15.6031919 15.9291582,16.1845508 C15.8093371,16.7992709 15.5264261,17.3232048 15.1597513,17.607048 C14.8773951,17.8263565 14.5761781,17.9242523 14.1018861,17.9505037 C13.9609853,17.9587072 13.7829178,17.9696453 13.7058107,17.9756612 C13.4328848,17.9964436 11.9695139,18.0544154 11.1668233,18.0768385 C9.97415934,18.1096527 7.88727477,18.1211377 6.75230246,18.1014491 Z M5.28054798,7.43390374 C5.2605778,7.40163641 5.26390616,5.5120833 5.28387635,5.24464727 C5.30994854,4.9017385 5.25114743,4.63156796 5.00152009,3.94137519 C4.92052988,3.71769148 4.77408184,3.28344975 4.67644982,2.97718354 C3.97028181,0.762769492 4.00744854,0.892385725 4.07512529,0.891838821 C4.5405416,0.888010494 5.11468448,0.890745014 5.12134121,0.897307861 C5.12577903,0.901683092 5.27666489,1.44202418 5.4569513,2.09885582 C5.63779244,2.75514054 5.78812358,3.30149758 5.79200667,3.31352946 C5.79533503,3.32446754 5.90128797,2.94218169 6.0272111,2.46364074 C6.29070662,1.45952511 6.43881885,0.90551142 6.44436612,0.900589284 C6.4560154,0.889651206 6.58693107,0.88746359 7.01573537,0.889651206 L7.49002732,0.892385725 L7.4794875,0.967311565 C7.47116658,1.0280179 7.14720577,2.09994962 6.80826731,3.18883537 C6.7716553,3.30915423 6.67679691,3.61924877 6.59858034,3.87848123 C6.52036378,4.1371668 6.42606012,4.44452681 6.38833865,4.56156425 L6.32010718,4.77485679 L6.32010718,6.10492717 C6.32010718,7.35241506 6.31733354,7.43609136 6.27961208,7.44593563 C6.19418405,7.46890559 5.29552562,7.45796752 5.28054798,7.43390374 Z M11.410286,7.51375172 C11.1761911,7.4831251 11.0391734,7.39397975 10.9454244,7.21076693 C10.8278222,6.98106728 10.8278222,6.98216109 10.8278222,4.6933681 L10.8278222,2.55770822 L11.30045,2.55770822 L11.772523,2.55770822 L11.7825081,4.5265624 C11.793048,6.6649568 11.7902743,6.61518854 11.9200805,6.64745588 C12.0393469,6.67644179 12.1713721,6.61354783 12.3355714,6.44838284 L12.493114,6.29032761 L12.499216,4.42374446 L12.5047632,2.55770822 L12.9768363,2.55114537 L13.4489093,2.54567633 L13.4489093,4.98979004 L13.4489093,7.43445065 L13.3845609,7.44757634 C13.3074538,7.46343655 12.5918554,7.46234275 12.5341638,7.44593563 C12.499216,7.43663826 12.4936687,7.40491783 12.4936687,7.21350145 L12.4936687,6.99145846 L12.3594247,7.12052778 C12.0509962,7.41640282 11.7181597,7.55422261 11.410286,7.51375172 L11.410286,7.51375172 Z M9.03161483,6.58018669 C9.19359524,6.45877402 9.19470469,6.44838284 9.2030256,5.07401324 C9.21023706,4.00590985 9.20635397,3.82433774 9.17362505,3.6788613 C9.12924686,3.48197588 9.05158502,3.38900221 8.8995897,3.34798441 C8.70321619,3.29657544 8.52348451,3.40705004 8.46024558,3.61870186 C8.41253902,3.78167924 8.41309375,6.20446369 8.46135504,6.36744106 C8.49796705,6.48994754 8.61501453,6.62393901 8.70155201,6.64253374 C8.81416168,6.66605061 8.95228881,6.63979922 9.03216956,6.58018669 L9.03161483,6.58018669 Z M8.66161164,7.51265791 C8.23890934,7.46234275 7.85060014,7.21732978 7.663657,6.88262457 C7.47338549,6.54190342 7.45563422,6.36361273 7.46672876,4.86290832 C7.4756044,3.70073745 7.47893277,3.62799923 7.52552987,3.46119353 C7.63703008,3.06468817 7.85281905,2.79451763 8.18731969,2.63099335 C8.646634,2.40730964 9.14200559,2.43629555 9.57524771,2.71302894 C9.85150196,2.8885851 10.0190296,3.14344234 10.1088955,3.52244677 C10.1482811,3.68979937 10.1521642,3.8183218 10.1521642,4.99197765 C10.1521642,6.41939693 10.1455075,6.50197943 9.99684055,6.81098016 C9.8542756,7.1090428 9.53142424,7.37155669 9.19470469,7.46398346 C9.04603774,7.50390745 8.78808949,7.52797122 8.66161164,7.51265791 L8.66161164,7.51265791 Z" id="Shape"></path>
                </g>
            </g>
        </g>
    </g>
</svg>