<?xml version="1.0" encoding="UTF-8"?>
<svg width="20px" height="20px" viewBox="0 0 20 20" version="1.1" xmlns="http://www.w3.org/2000/svg" xmlns:xlink="http://www.w3.org/1999/xlink">
    <!-- Generator: Sketch 43.2 (39069) - http://www.bohemiancoding.com/sketch -->
    <title>Shape</title>
    <desc>Created with Sketch.</desc>
    <defs></defs>
    <g id="Page-1" stroke="none" stroke-width="1" fill="none" fill-rule="evenodd">
        <g id="SP-Funnel---Pricing---Yearly" transform="translate(-897.000000, -1201.000000)" fill-rule="nonzero" fill="#50C1DC">
            <path d="M902.669016,1206 C903.553894,1206 904.271273,1205.29256 904.271273,1204.42024 L904.271273,1202.57976 C904.271273,1201.70744 903.553894,1201 902.669016,1201 C901.784439,1201 901.066758,1201.70744 901.066758,1202.57976 L901.066758,1204.42024 C901.066758,1205.29256 901.784439,1206 902.669016,1206 Z M911.330683,1206 C912.215561,1206 912.93294,1205.29256 912.93294,1204.42024 L912.93294,1202.57976 C912.93294,1201.70744 912.215561,1201 911.330683,1201 C910.446106,1201 909.728425,1201.70744 909.728425,1202.57976 L909.728425,1204.42024 C909.728425,1205.29256 910.446106,1206 911.330683,1206 Z M914.887097,1203.63929 L913.777981,1203.63929 L913.777981,1204.42024 C913.777981,1205.75089 912.680333,1206.83333 911.330683,1206.83333 C909.981032,1206.83333 908.883686,1205.75089 908.883686,1204.42024 L908.883686,1203.63929 L905.116314,1203.63929 L905.116314,1204.42024 C905.116314,1205.75089 904.018666,1206.83333 902.669016,1206.83333 C901.319365,1206.83333 900.222019,1205.75089 900.222019,1204.42024 L900.222019,1203.63929 L899.112903,1203.63929 C897.946446,1203.63929 897.000302,1204.57232 897.000302,1205.72262 L897.000302,1208.5 L917,1208.5 L917,1205.72232 C916.999698,1204.57202 916.053554,1203.63929 914.887097,1203.63929 Z M897,1218.91667 C897,1220.06696 897.946144,1221 899.112602,1221 L914.887097,1221 C916.053554,1221 916.999698,1220.06696 916.999698,1218.91667 L916.999698,1209.33333 L897,1209.33333 L897,1218.91667 Z M911.729361,1211.59881 L914.431982,1211.59881 L914.431982,1214.26399 L911.729361,1214.26399 L911.729361,1211.59881 Z M911.729361,1215.40089 L914.431982,1215.40089 L914.431982,1218.06607 L911.729361,1218.06607 L911.729361,1215.40089 Z M907.675278,1211.59881 L910.377899,1211.59881 L910.377899,1214.26399 L907.675278,1214.26399 L907.675278,1211.59881 Z M907.675278,1215.40089 L910.377899,1215.40089 L910.377899,1218.06607 L907.675278,1218.06607 L907.675278,1215.40089 Z M903.621799,1211.59881 L906.324118,1211.59881 L906.324118,1214.26399 L903.621799,1214.26399 L903.621799,1211.59881 Z M903.621799,1215.40089 L906.324118,1215.40089 L906.324118,1218.06607 L903.621799,1218.06607 L903.621799,1215.40089 Z M899.568018,1211.59881 L902.270639,1211.59881 L902.270639,1214.26399 L899.568018,1214.26399 L899.568018,1211.59881 Z M899.568018,1215.40089 L902.270639,1215.40089 L902.270639,1218.06607 L899.568018,1218.06607 L899.568018,1215.40089 Z" id="Shape"></path>
        </g>
    </g>
</svg>