<?xml version="1.0" encoding="UTF-8"?>
<svg width="25px" height="20px" viewBox="0 0 25 20" version="1.1" xmlns="http://www.w3.org/2000/svg" xmlns:xlink="http://www.w3.org/1999/xlink">
    <!-- Generator: Sketch 43.2 (39069) - http://www.bohemiancoding.com/sketch -->
    <title>noun_1421380</title>
    <desc>Created with Sketch.</desc>
    <defs></defs>
    <g id="Page-1" stroke="none" stroke-width="1" fill="none" fill-rule="evenodd">
        <g id="SP-Funnel---Pricing---Yearly" transform="translate(-241.000000, -1203.000000)" fill-rule="nonzero" fill="#50C1DC">
            <g id="noun_1421380" transform="translate(241.000000, 1203.000000)">
                <path d="M24.0909091,0.0857142857 L10.6818182,0.0857142857 C10.211121,0.0857142857 9.82954545,0.469470214 9.82954545,0.942857143 L9.82954545,4.48571429 L0.909090909,4.48571429 C0.438393679,4.48571429 0.0568181818,4.86947021 0.0568181818,5.34285714 L0.0568181818,15.9142857 C0.0568181818,16.3876726 0.438393679,16.7714286 0.909090909,16.7714286 L2.61363636,16.7714286 L2.61363636,19.0571429 C2.60483067,19.3923996 2.79124953,19.702025 3.09072486,19.8495449 C3.3902002,19.9970649 3.74771297,19.9553774 4.00568182,19.7428571 L7.72727273,16.7714286 L15.1704545,16.7714286 C15.6411518,16.7714286 16.0227273,16.3876726 16.0227273,15.9142857 L16.0227273,11.7428571 L17.6704545,11.7428571 L21.1647727,14.5142857 C21.4227416,14.726806 21.7802543,14.7684935 22.0797297,14.6209735 C22.379205,14.4734535 22.5656239,14.1638282 22.5568182,13.8285714 L22.5568182,11.7428571 L24.1193182,11.7428571 C24.5900154,11.7428571 24.9715909,11.3591012 24.9715909,10.8857143 L24.9715909,0.942857143 C24.9717193,0.710490699 24.8780373,0.488028752 24.712007,0.326436123 C24.5459767,0.164843493 24.3218269,0.0779687005 24.0909091,0.0857142857 L24.0909091,0.0857142857 Z M23.2386364,10.0285714 L21.6761364,10.0285714 C21.2054391,10.0285714 20.8238636,10.4123274 20.8238636,10.8857143 L20.8238636,12.0857143 L18.4659091,10.2 C18.3106585,10.0826802 18.1202255,10.0221998 17.9261364,10.0285714 L16.0227273,10.0285714 L16.0227273,5.34285714 C16.0227273,4.86947021 15.6411518,4.48571429 15.1704545,4.48571429 L11.5340909,4.48571429 L11.5340909,1.8 L23.2386364,1.8 L23.2386364,10.0285714 Z" id="Shape"></path>
            </g>
        </g>
    </g>
</svg>