<?xml version="1.0" encoding="UTF-8"?>
<svg width="20px" height="20px" viewBox="0 0 20 20" version="1.1" xmlns="http://www.w3.org/2000/svg" xmlns:xlink="http://www.w3.org/1999/xlink">
    <!-- Generator: Sketch 43.2 (39069) - http://www.bohemiancoding.com/sketch -->
    <title>noun_555083</title>
    <desc>Created with Sketch.</desc>
    <defs></defs>
    <g id="Page-1" stroke="none" stroke-width="1" fill="none" fill-rule="evenodd">
        <g id="SP-Funnel---Pricing---Yearly" transform="translate(-244.000000, -1058.000000)" fill-rule="nonzero" fill="#50C1DC">
            <g id="noun_555083" transform="translate(244.000000, 1058.000000)">
                <path d="M10,20 C4.477,20 0,15.523 0,10 C0,4.477 4.477,0 10,0 C15.523,0 20,4.477 20,10 C20,15.523 15.523,20 10,20 Z M4,9 C3.448,9 3,9.448 3,10 C3,10.552 3.448,11 4,11 C4.552,11 5,10.552 5,10 C5,9.448 4.552,9 4,9 Z M6.46,5.05 C6.279,4.869 6.029,4.757 5.753,4.757 C5.201,4.757 4.753,5.205 4.753,5.757 C4.753,6.309 5.201,6.757 5.753,6.757 C6.029,6.757 6.279,6.645 6.46,6.464 C6.645,6.285 6.76,6.034 6.76,5.757 C6.76,5.48 6.645,5.229 6.46,5.05 L6.46,5.05 Z M10,3 C9.448,3 9,3.448 9,4 C9,4.552 9.448,5 10,5 C10.552,5 11,4.552 11,4 C11,3.448 10.552,3 10,3 Z M12,13.983 C11.998,13.609 11.89,13.26 11.705,12.965 L9.99,7.014 L8.27,13.014 C8.114,13.274 8.019,13.587 8.01,13.921 L7.99,13.992 L8,13.992 L8,14 C8,15.105 8.895,16 10,16 C11.105,16 12,15.105 12,14 L12,13.983 Z M14.95,5.05 C14.769,4.87 14.52,4.759 14.245,4.759 C13.97,4.759 13.721,4.87 13.54,5.05 C13.355,5.229 13.24,5.48 13.24,5.757 C13.24,6.034 13.355,6.285 13.54,6.464 C13.716,6.622 13.95,6.718 14.206,6.718 C14.758,6.718 15.206,6.27 15.206,5.718 C15.206,5.461 15.109,5.227 14.95,5.05 Z M16,9 C15.448,9 15,9.448 15,10 C15,10.552 15.448,11 16,11 C16.552,11 17,10.552 17,10 C17,9.448 16.552,9 16,9 Z" id="Shape"></path>
            </g>
        </g>
    </g>
</svg>