<?xml version="1.0" encoding="UTF-8"?>
<svg width="22px" height="21px" viewBox="0 0 22 21" version="1.1" xmlns="http://www.w3.org/2000/svg" xmlns:xlink="http://www.w3.org/1999/xlink">
    <!-- Generator: Sketch 43.2 (39069) - http://www.bohemiancoding.com/sketch -->
    <title>noun_810263</title>
    <desc>Created with Sketch.</desc>
    <defs></defs>
    <g id="Page-1" stroke="none" stroke-width="1" fill="none" fill-rule="evenodd">
        <g id="SP-Funnel---Pricing---Yearly" transform="translate(-894.000000, -1058.000000)" fill-rule="nonzero" fill="#50C1DC">
            <g id="noun_810263" transform="translate(894.000000, 1058.000000)">
                <path d="M21.6902041,6.00741573 L20.1816327,7.99651685 L21.6902041,9.98561798 C21.7850047,10.1084125 21.8037997,10.2777104 21.7384445,10.4201475 C21.6730893,10.5625847 21.5353433,10.6525319 21.384898,10.6510112 L18.0422449,10.6510112 C17.7580925,10.6506248 17.4895652,10.5142804 17.3126531,10.2805618 L16.5853061,9.32258427 L14.8993878,9.32258427 C14.7742301,10.085733 14.5403804,10.8247029 14.2057143,11.5146067 L19.8808163,17.477191 C19.9544215,17.554876 19.9956115,17.6601391 19.9953061,17.7697753 L19.9953061,20.7286517 C19.9904624,20.8800279 19.8722654,21.0000856 19.7281633,21 L16.9130612,21 C16.8088006,21.0000628 16.7087426,20.9568081 16.6346939,20.8796629 L15.9387755,20.1434831 C15.851408,20.0534869 15.8027605,19.9299176 15.8040816,19.8013483 L15.8040816,18.2204494 C15.8040816,18.1188042 15.7256858,18.0364045 15.6289796,18.0364045 L14.2820408,18.0364045 C13.9485285,18.0364045 13.6781633,17.7522311 13.6781633,17.4016854 L13.6781633,15.9859551 C13.6781633,15.8843098 13.5997674,15.8019101 13.5030612,15.8019101 L11.9944898,15.8019101 C11.8749232,15.802614 11.7597901,15.7543779 11.6734694,15.6674157 L10.9663265,14.9241573 C8.29932663,16.3502733 5.07741688,15.9458397 2.80494804,13.8996918 C0.532479202,11.8535438 -0.342293218,8.56929406 0.589073181,5.58040064 C1.52043958,2.59150721 4.07422826,0.487543848 7.0580427,0.250877872 C10.0418571,0.0142118972 12.8671255,1.69152683 14.2146939,4.49966292 L10.9191837,4.49966292 C9.41508024,2.93069399 7.09736104,2.61549353 5.26286727,3.73042672 C3.42837351,4.8453599 2.53206483,7.11392015 3.07545584,9.26677232 C3.61884684,11.4196245 5.46717504,12.9228552 7.58623912,12.9353566 C9.70530321,12.9478581 11.5695693,11.46653 12.1359184,9.32022472 L9.25346939,9.32022472 C8.71886899,10.0551473 7.79920909,10.3520873 6.96426419,10.059364 C6.1293193,9.76664058 5.56340805,8.94887404 5.55560546,8.02379038 C5.54780286,7.09870672 6.09983137,6.2705232 6.92970749,5.96228698 C7.7595836,5.65405077 8.68410764,5.93380668 9.23102041,6.65865169 L16.5942857,6.65865169 L17.314898,5.71483146 C17.4918101,5.4811129 17.7603374,5.34476849 18.0444898,5.34438202 L21.384898,5.34438202 C21.5344961,5.34360617 21.6712185,5.4332131 21.736391,5.57474817 C21.8015634,5.71628324 21.7835978,5.8845806 21.6902041,6.00741573 Z" id="Shape"></path>
            </g>
        </g>
    </g>
</svg>