<?xml version="1.0" encoding="UTF-8"?>
<svg width="24px" height="23px" viewBox="0 0 24 23" version="1.1" xmlns="http://www.w3.org/2000/svg" xmlns:xlink="http://www.w3.org/1999/xlink">
    <!-- Generator: Sketch 43.2 (39069) - http://www.bohemiancoding.com/sketch -->
    <title>noun_578437</title>
    <desc>Created with Sketch.</desc>
    <defs></defs>
    <g id="Page-1" stroke="none" stroke-width="1" fill="none" fill-rule="evenodd">
        <g id="SP-Funnel---Pricing---Yearly" transform="translate(-569.000000, -1199.000000)" fill-rule="nonzero" fill="#50C1DC">
            <g id="noun_578437" transform="translate(569.000000, 1198.000000)">
                <path d="M22.3188563,20.4633641 C22.203075,20.4608103 22.080525,20.4560676 21.9700875,20.440745 C21.9647438,20.4400154 21.9604688,20.4392857 21.9569063,20.4385561 C21.9561938,20.434543 21.9554813,20.4298003 21.9547688,20.4239631 C21.8543063,19.5786674 21.4065,19.1675115 20.5864125,19.1671467 C18.0395813,19.1660522 15.4923938,19.1664171 12.9455625,19.1671467 C12.1472063,19.1675115 11.7043875,19.5615207 11.592525,20.3721582 C11.58825,20.4028034 11.5832625,20.424328 11.5793438,20.4389209 C11.566875,20.4418395 11.5487063,20.4451229 11.524125,20.4476767 C11.4261563,20.4578917 11.3192813,20.4629992 11.1974438,20.4629992 C11.1693,20.4629992 11.1408,20.4626344 11.1130125,20.4622696 L11.0887875,20.4619048 C10.6969125,20.4619048 10.3449375,20.6271697 10.0713375,20.9398233 C9.64633125,21.4250384 9.5469375,22.0576421 9.7906125,22.7208909 C10.0125563,23.3243088 10.5369563,23.6705261 11.22915,23.6705261 L13.1732063,23.6705261 C14.3595188,23.6705261 15.5458313,23.6705261 16.7317875,23.6708909 C17.423625,23.6708909 18.1151063,23.6712558 18.8069438,23.6712558 L19.5675375,23.6712558 C19.8194063,23.6712558 20.0716313,23.6716206 20.3235,23.6719854 C20.5760813,23.6723502 20.8286625,23.6727151 21.0812438,23.6727151 C21.5596875,23.6727151 21.9476438,23.6716206 22.3024688,23.6690668 C23.1970125,23.6628648 23.8215188,22.9992512 23.82045,22.0550883 C23.8200938,21.1375576 23.2023563,20.4834293 22.3188563,20.4633641 Z" id="Shape"></path>
                <g id="Group-11" transform="translate(10.500000, 12.500000) rotate(5.000000) translate(-10.500000, -12.500000) translate(1.000000, 1.000000)">
                    <path d="M14.3523823,5.86145091 L14.350126,5.85992529 C14.4430083,5.70926983 14.5249854,5.57692187 14.6035781,5.44915078 C14.6325333,5.40185641 14.6611125,5.35570626 14.6893156,5.30879329 C14.9077958,4.94950862 14.8540219,4.68938958 14.5065594,4.46512271 C13.9131656,4.08219086 13.3190198,3.69964041 12.724874,3.31785278 C12.1322323,2.93377671 11.5384625,2.55046345 10.9450687,2.16753159 C10.5976062,1.94326473 10.34265,2.00428973 10.1143927,2.3574719 C10.0846854,2.40324064 10.0553542,2.44900939 10.0256469,2.49554095 C9.94479792,2.62178641 9.86131667,2.75337156 9.76617812,2.9025014 L9.76392187,2.90097577 L6.98723021,7.32910208 L6.98760625,7.32948349 C6.92480729,7.42979332 6.86426458,7.5262891 6.80409792,7.62087785 C6.74242708,7.71928065 6.68188437,7.81539502 6.62322187,7.91303502 C6.43219271,8.22769515 6.48596667,8.50764733 6.7913125,8.71208106 C6.89886042,8.78454825 6.92292708,8.8612109 6.93044792,8.98783777 C6.94736979,9.26397588 7.00490417,9.53744414 7.03197917,9.81320084 C7.04025208,9.89787303 7.02897083,10.0061924 6.98271771,10.0714129 C6.80597812,10.3204711 6.61682917,10.5611385 6.42279167,10.7968475 L5.4104875,12.1790637 C5.4104875,12.1790637 5.4104875,12.1790637 5.4104875,12.1783009 C4.05711354,14.085332 2.82256875,16.0697886 1.65796771,18.100014 L1.65533542,18.1049722 L0.476820833,20.3468781 L0.475316667,20.3491665 C0.404620833,20.4975335 0.332796875,20.6455191 0.262477083,20.7942676 C0.143647917,21.0437072 0.163578125,21.2672113 0.354607292,21.4811802 C0.546388542,21.6962933 0.760732292,21.876317 0.994254167,22.0250655 C1.22589583,22.1764837 1.47746771,22.2970081 1.75122604,22.3820617 C2.02310417,22.4667339 2.23105521,22.3904526 2.40328229,22.1753395 C2.50594167,22.0475684 2.60784896,21.9190345 2.71050833,21.7912634 L2.7120125,21.788975 L4.21392292,19.7560798 L4.21730729,19.7518843 C5.53646146,17.821206 6.78491979,15.8459032 7.91379687,13.7939376 L7.91304479,13.7939376 L8.71777396,12.2778479 C8.84600417,11.9998028 8.98100312,11.724046 9.12841146,11.4559175 C9.16714375,11.3857387 9.25889792,11.329672 9.33824271,11.3010665 C9.59620729,11.2091476 9.864325,11.1458342 10.1181531,11.0443801 C10.23435,10.9978486 10.3129427,10.9871692 10.4231229,11.0554409 C10.7352375,11.2491953 11.0082437,11.1797794 11.2079219,10.8712217 C11.2699687,10.7758702 11.3301354,10.6793744 11.3918062,10.581353 C11.4508448,10.4863828 11.5113875,10.3895057 11.5745625,10.2891958 L11.5749385,10.2895772 L14.3523823,5.86145091 Z" id="Shape"></path>
                    <g id="Group" transform="translate(3.384375, 0.000000)">
                        <path d="M0.781790625,7.58960253 L0.781790625,7.58960253 C0.09025,7.14373865 -0.115444792,6.20509793 0.324147917,5.50369187 L3.24674375,0.842907764 C3.68633646,0.141501711 4.611775,-0.0671274962 5.30331563,0.378736385 L5.30331563,0.378736385 C5.99485625,0.824600265 6.20055104,1.76324099 5.76095833,2.46464705 L2.8383625,7.12543115 C2.39876979,7.8264558 1.47333125,8.03546642 0.781790625,7.58960253 Z" id="Shape"></path>
                        <path d="M9.15548646,12.9910775 L9.15548646,12.9910775 C8.46394583,12.5452137 8.25825104,11.6065729 8.69784375,10.9051669 L11.6204396,6.24438277 C12.0600323,5.54297671 12.9854708,5.33434751 13.6770115,5.78021139 L13.6770115,5.78021139 C14.3685521,6.22607527 14.5742469,7.164716 14.1346542,7.86612205 L11.2120583,12.5269062 C10.7724656,13.2283122 9.84702708,13.4369414 9.15548646,12.9910775 Z" id="Shape"></path>
                    </g>
                </g>
            </g>
        </g>
    </g>
</svg>