<?xml version="1.0" encoding="UTF-8"?>
<svg width="23px" height="20px" viewBox="0 0 23 20" version="1.1" xmlns="http://www.w3.org/2000/svg" xmlns:xlink="http://www.w3.org/1999/xlink">
    <!-- Generator: Sketch 43.2 (39069) - http://www.bohemiancoding.com/sketch -->
    <title>noun_1378675</title>
    <desc>Created with Sketch.</desc>
    <defs></defs>
    <g id="Page-1" stroke="none" stroke-width="1" fill="none" fill-rule="evenodd">
        <g id="SP-Funnel---Pricing---Yearly" transform="translate(-569.000000, -1060.000000)" stroke="#FFFFFF" stroke-width="0.5" fill="#50C1DC" fill-rule="nonzero">
            <g id="noun_1378675" transform="translate(570.000000, 1061.000000)">
                <path d="M21,0.726835382 L21,14.393502 C21,14.593502 20.895,14.793502 20.72,14.9268354 C20.58,15.0268354 20.44,15.0601687 20.3,15.0601687 C20.23,15.0601687 20.16,15.0601687 20.125,15.0268354 L2.275,10.3601687 C0.945,10.0268354 0,8.86016872 0,7.52683538 C0,6.19350205 0.945,5.06016872 2.275,4.69350205 L20.125,0.0268353822 C20.335,-0.0398312844 20.545,0.0268353822 20.72,0.126835382 C20.895,0.326835382 21,0.493502049 21,0.726835382 Z M9.415,13.293502 L4.305,11.9601687 L5.81,16.393502 C6.09,17.2601687 6.965,17.8601687 7.91,17.8601687 C8.61,17.8601687 9.275,17.5601687 9.695,16.993502 C10.115,16.4268354 10.22,15.7601687 10.01,15.093502 L9.415,13.293502 Z" id="Shape"></path>
            </g>
        </g>
    </g>
</svg>