<?xml version="1.0" encoding="UTF-8"?>
<svg width="150px" height="36px" viewBox="0 0 150 36" version="1.1" xmlns="http://www.w3.org/2000/svg" xmlns:xlink="http://www.w3.org/1999/xlink">
    <!-- Generator: Sketch 43.2 (39069) - http://www.bohemiancoding.com/sketch -->
    <title>TeikaLogo_H_black</title>
    <desc>Created with Sketch.</desc>
    <defs></defs>
    <g id="Page-1" stroke="none" stroke-width="1" fill="none" fill-rule="evenodd">
        <g id="SP-Funnel---Pricing---Yearly" transform="translate(-646.000000, -33.000000)" fill-rule="nonzero" fill="#292533">
            <g id="TeikaLogo_H_black" transform="translate(646.000000, 33.000000)">
                <g id="Group">
                    <polygon id="Shape" points="15.0267828 28.4192308 15.0267828 31.5 11.8848191 31.5 11.8848191 32.8153846 15.0267828 32.8153846 15.0267828 35.8961538 16.3587022 35.8961538 16.3587022 32.8153846 19.5006659 32.8153846 19.5006659 31.5 16.3587022 31.5 16.3587022 28.4192308"></polygon>
                    <rect id="Rectangle-path" x="21.1399513" y="31.5" width="4.64464196" height="1.28076923"></rect>
                    <polygon id="Shape" points="30.5658423 28.4192308 30.5658423 31.5 27.4238787 31.5 27.4238787 32.8153846 30.5658423 32.8153846 30.5658423 35.8961538 31.8977617 35.8961538 31.8977617 32.8153846 35.0055736 32.8153846 35.0055736 31.5 31.8977617 31.5 31.8977617 28.4192308"></polygon>
                    <path d="M0.102455337,6.95769231 L4.98615976,6.95769231 C6.93281117,6.95769231 8.6745519,8.20384615 9.0160697,10.0730769 L11.3725425,22.7076923 C11.5433014,23.6769231 12.4653994,24.3346154 13.4899528,24.3346154 L35.4495468,24.3346154 C35.9276717,24.3346154 36.3033412,24.7153846 36.3033412,25.1653846 L36.3033412,25.5807692 C36.3033412,26.0307692 35.9276717,26.4115385 35.4495468,26.4115385 L13.3874974,26.4115385 C11.440846,26.4115385 9.69910528,25.1653846 9.35758749,23.2961538 L7.00111473,10.6615385 C6.83035583,9.69230769 5.90825779,9.03461538 4.88370442,9.03461538 L0.102455337,9.03461538 L0.102455337,6.95769231 Z" id="Shape"></path>
                    <rect id="Rectangle-path" x="21.1399513" y="4.15384615" width="4.67879374" height="17.4115385"></rect>
                    <rect id="Rectangle-path" x="27.6970929" y="0.103846154" width="4.67879374" height="21.4961538"></rect>
                    <rect id="Rectangle-path" x="14.5486579" y="7.78846154" width="4.67879374" height="13.8115385"></rect>
                </g>
                <g id="Group" transform="translate(45.421866, 10.938462)">
                    <path d="M1.40022295,10.5923077 L1.40022295,4.70769231 L0.102455337,4.70769231 L0.102455337,3.91153846 L1.40022295,3.91153846 L1.40022295,1.03846154 L2.25401742,1.03846154 L2.25401742,3.91153846 L5.36182933,3.91153846 L5.36182933,4.70769231 L2.25401742,4.70769231 L2.25401742,10.5230769 C2.25401742,11.8038462 3.00535657,12.2884615 4.02990994,12.2884615 C4.47388307,12.2884615 4.81540086,12.1846154 5.32767755,11.9769231 L5.32767755,12.7730769 C4.88370442,12.9807692 4.43973129,13.0846154 3.89330282,13.0846154 C2.52723166,13.05 1.40022295,12.2884615 1.40022295,10.5923077 Z" id="Shape"></path>
                    <path d="M7.06941828,8.41153846 L7.06941828,8.37692308 C7.06941828,5.74615385 8.87946258,3.66923077 11.2700871,3.66923077 C13.763167,3.66923077 15.3341488,5.71153846 15.3341488,8.37692308 C15.3341488,8.55 15.3341488,8.58461538 15.2999971,8.72307692 L7.92321276,8.72307692 C8.09397166,10.9730769 9.6649535,12.2884615 11.4066942,12.2884615 C12.7727654,12.2884615 13.7290152,11.6653846 14.4462026,10.8692308 L15.0267828,11.3884615 C14.1046848,12.3923077 13.0459796,13.0846154 11.3383907,13.0846154 C9.08437325,13.1192308 7.06941828,11.2153846 7.06941828,8.41153846 Z M14.4462026,7.96153846 C14.3095955,6.12692308 13.2850421,4.46538462 11.2700871,4.46538462 C9.4941946,4.46538462 8.16227522,5.95384615 7.99151632,7.96153846 L14.4462026,7.96153846 Z" id="Shape"></path>
                    <path d="M17.9296841,0.346153846 L18.9883892,0.346153846 L18.9883892,1.52307692 L17.9296841,1.52307692 L17.9296841,0.346153846 Z M18.0321394,3.87692308 L18.8859339,3.87692308 L18.8859339,12.8769231 L18.0321394,12.8769231 L18.0321394,3.87692308 Z" id="Shape"></path>
                    <polygon id="Shape" points="22.26696 1.3500312e-13 23.1207545 1.3500312e-13 23.1207545 9.65769231 28.6191909 3.87692308 29.7461996 3.87692308 25.8528968 7.85769231 29.848655 12.8769231 28.755798 12.8769231 25.2723166 8.51538462 23.1207545 10.7307692 23.1207545 12.9115385 22.26696 12.9115385"></polygon>
                    <path d="M31.1464226,10.2807692 L31.1464226,10.2461538 C31.1464226,8.37692308 32.7174044,7.30384615 35.0397254,7.30384615 C36.2691895,7.30384615 37.1229839,7.47692308 37.9767784,7.68461538 L37.9767784,7.30384615 C37.9767784,5.46923077 36.8839215,4.53461538 35.0397254,4.53461538 C33.9468685,4.53461538 33.0589222,4.84615385 32.2392795,5.26153846 L31.9319135,4.5 C32.9223151,4.05 33.8785649,3.73846154 35.0738772,3.73846154 C36.2691895,3.73846154 37.2254393,4.08461538 37.8743231,4.74230769 C38.4549033,5.33076923 38.7964211,6.16153846 38.7964211,7.26923077 L38.7964211,12.8769231 L37.9767784,12.8769231 L37.9767784,11.3884615 C37.3620464,12.2538462 36.2691895,13.0846154 34.5957523,13.0846154 C32.9223151,13.1192308 31.1464226,12.15 31.1464226,10.2807692 Z M38.0109302,9.51923077 L38.0109302,8.48076923 C37.2595911,8.27307692 36.2691895,8.06538462 35.0055736,8.06538462 C33.1272258,8.06538462 32.0685206,8.89615385 32.0685206,10.1769231 L32.0685206,10.2115385 C32.0685206,11.5269231 33.2979847,12.2884615 34.6640558,12.2884615 C36.4399484,12.2884615 38.0109302,11.1807692 38.0109302,9.51923077 Z" id="Shape"></path>
                </g>
                <g id="Group" transform="translate(86.745519, 10.938462)">
                    <path d="M0.307366012,3.56538462 L2.42477632,3.56538462 L2.42477632,4.98461538 C3.00535657,4.15384615 3.82499926,3.39230769 5.22522221,3.39230769 C6.5571416,3.39230769 7.47923963,4.05 7.99151632,5.01923077 C8.70870368,4.01538462 9.69910528,3.39230769 11.0993282,3.39230769 C13.1142832,3.39230769 14.3095955,4.67307692 14.3095955,6.95769231 L14.3095955,12.9115385 L12.1921852,12.9115385 L12.1921852,7.61538462 C12.1921852,6.12692308 11.5091496,5.33076923 10.3138373,5.33076923 C9.15267681,5.33076923 8.33303411,6.12692308 8.33303411,7.65 L8.33303411,12.9115385 L6.21562381,12.9115385 L6.21562381,7.58076923 C6.21562381,6.12692308 5.53258822,5.33076923 4.33727595,5.33076923 C3.14196368,5.33076923 2.35647276,6.23076923 2.35647276,7.65 L2.35647276,12.9115385 L0.239062454,12.9115385 L0.239062454,3.56538462 L0.307366012,3.56538462 Z" id="Shape"></path>
                    <path d="M16.2562469,8.27307692 L16.2562469,8.23846154 C16.2562469,5.57307692 18.1345947,3.39230769 20.7642817,3.39230769 C23.7013347,3.39230769 25.1698612,5.71153846 25.1698612,8.41153846 C25.1698612,8.61923077 25.1357095,8.79230769 25.1357095,9 L18.3736572,9 C18.6127196,10.5230769 19.6714248,11.3538462 21.037496,11.3538462 C22.0620493,11.3538462 22.8133885,10.9730769 23.5305758,10.2461538 L24.7600399,11.3538462 C23.8720936,12.4269231 22.6767814,13.1192308 21.0033442,13.1192308 C18.3053536,13.1192308 16.2562469,11.1461538 16.2562469,8.27307692 Z M23.0866027,7.58076923 C22.9499956,6.19615385 22.1303529,5.12307692 20.7642817,5.12307692 C19.4665141,5.12307692 18.5785679,6.12692308 18.3736572,7.58076923 L23.0866027,7.58076923 Z" id="Shape"></path>
                    <path d="M27.6287893,10.3153846 L27.6287893,5.4 L26.4676288,5.4 L26.4676288,3.56538462 L27.6287893,3.56538462 L27.6287893,1.00384615 L29.7461996,1.00384615 L29.7461996,3.56538462 L32.2051277,3.56538462 L32.2051277,5.4 L29.7461996,5.4 L29.7461996,9.96923077 C29.7461996,10.8 30.156021,11.1461538 30.8732084,11.1461538 C31.3513333,11.1461538 31.7611546,11.0423077 32.170976,10.8346154 L32.170976,12.6 C31.6586993,12.9115385 31.078119,13.0846154 30.2584763,13.0846154 C28.755798,13.05 27.6287893,12.3576923 27.6287893,10.3153846 Z" id="Shape"></path>
                    <path d="M34.2883863,3.56538462 L36.4057966,3.56538462 L36.4057966,5.67692308 C36.9863768,4.29230769 38.045082,3.32307692 39.6502156,3.39230769 L39.6502156,5.64230769 L39.5136085,5.64230769 C37.6694124,5.64230769 36.3716448,6.85384615 36.3716448,9.34615385 L36.3716448,12.9115385 L34.2542345,12.9115385 L34.2542345,3.56538462 L34.2883863,3.56538462 Z" id="Shape"></path>
                    <path d="M41.4261081,0.103846154 L43.6801255,0.103846154 L43.6801255,2.14615385 L41.4261081,2.14615385 L41.4261081,0.103846154 Z M41.5285634,3.56538462 L43.6459738,3.56538462 L43.6459738,12.8769231 L41.5285634,12.8769231 L41.5285634,3.56538462 Z" id="Shape"></path>
                    <path d="M45.7975358,8.27307692 L45.7975358,8.23846154 C45.7975358,5.57307692 47.8124908,3.35769231 50.5787849,3.35769231 C52.3205257,3.35769231 53.3792308,4.01538462 54.2671771,4.95 L52.9352577,6.36923077 C52.2863739,5.67692308 51.6033383,5.19230769 50.5787849,5.19230769 C49.0419549,5.19230769 47.9149461,6.54230769 47.9149461,8.16923077 L47.9149461,8.20384615 C47.9149461,9.86538462 49.0419549,11.1807692 50.6812403,11.1807692 C51.6716419,11.1807692 52.422981,10.7307692 53.0718648,10.0384615 L54.3354806,11.3192308 C53.4133826,12.3576923 52.3546774,13.0846154 50.5787849,13.0846154 C47.8124908,13.1192308 45.7975358,10.9384615 45.7975358,8.27307692 Z" id="Shape"></path>
                    <path d="M55.3941858,11.6653846 L56.3504356,10.2115385 C57.374989,10.9730769 58.4336941,11.3538462 59.3557922,11.3538462 C60.2778902,11.3538462 60.7901669,10.9730769 60.7901669,10.35 L60.7901669,10.3153846 C60.7901669,9.58846154 59.7997653,9.34615385 58.7410601,9 C57.374989,8.61923077 55.8723107,8.03076923 55.8723107,6.26538462 L55.8723107,6.23076923 C55.8723107,4.46538462 57.3066854,3.39230769 59.1508815,3.39230769 C60.312042,3.39230769 61.541506,3.80769231 62.5319076,4.46538462 L61.7122649,5.98846154 C60.8243187,5.43461538 59.8680689,5.08846154 59.1167297,5.08846154 C58.297087,5.08846154 57.8189621,5.46923077 57.8189621,6.02307692 L57.8189621,6.05769231 C57.8189621,6.75 58.8093637,7.02692308 59.9022206,7.37307692 C61.23414,7.78846154 62.7709701,8.41153846 62.7709701,10.1076923 L62.7709701,10.1423077 C62.7709701,12.1153846 61.2682918,13.0846154 59.3557922,13.0846154 C57.989721,13.0846154 56.5553463,12.6 55.3941858,11.6653846 Z" id="Shape"></path>
                </g>
            </g>
        </g>
    </g>
</svg>